<svg xmlns="http://www.w3.org/2000/svg" xmlns:xlink="http://www.w3.org/1999/xlink" width="221.089" height="16.391" viewBox="0 0 221.089 16.391">
  <defs>
    <linearGradient id="linear-gradient" x1="-5.604" y1="7.454" x2="-5.593" y2="7.454" gradientUnits="objectBoundingBox">
      <stop offset="0" stop-color="#d09910"/>
      <stop offset="1" stop-color="#a65718"/>
    </linearGradient>
    <linearGradient id="linear-gradient-2" x1="-2.945" y1="4.221" x2="-2.939" y2="4.221" gradientUnits="objectBoundingBox">
      <stop offset="0" stop-color="#fd0"/>
      <stop offset="0.9" stop-color="#d09910"/>
      <stop offset="1" stop-color="#fd0"/>
    </linearGradient>
    <linearGradient id="linear-gradient-3" x1="-6.119" y1="9.325" x2="-6.108" y2="9.325" gradientUnits="objectBoundingBox">
      <stop offset="0" stop-color="#00416b"/>
      <stop offset="1" stop-color="#002447"/>
    </linearGradient>
    <linearGradient id="linear-gradient-4" x1="-3.709" y1="4.669" x2="-3.702" y2="4.669" gradientUnits="objectBoundingBox">
      <stop offset="0" stop-color="#00416b"/>
      <stop offset="0.9" stop-color="#00b1eb"/>
      <stop offset="1" stop-color="#0083ca"/>
    </linearGradient>
  </defs>
  <g id="Grupo_192" data-name="Grupo 192" transform="translate(-633 -688)">
    <g id="Grupo_189" data-name="Grupo 189" transform="translate(633 690)">
      <g id="g4005" transform="translate(3.667 8.074)">
        <g id="g4007">
          <g id="g4013">
            <g id="g4015">
              <path id="path4023" d="M62.891,140.5a.662.662,0,0,0-.145.416h0a.67.67,0,0,0,.672.67h4.864l-3.116-4.039Z" transform="translate(-62.746 -137.546)" fill="url(#linear-gradient)"/>
            </g>
          </g>
        </g>
      </g>
      <g id="g4025" transform="translate(0 4.037)">
        <g id="g4027">
          <g id="g4033">
            <g id="g4035">
              <path id="path4045" d="M4.176,69.021a1.4,1.4,0,0,0-1.118.553h0L.6,72.762a.478.478,0,0,0-.1.3h0a.475.475,0,0,0,.1.294h0l2.455,3.185.016.022a1.4,1.4,0,0,0,1.078.537h.69a.67.67,0,0,1-.672-.67h0a.662.662,0,0,1,.145-.416h0l2.274-2.953L9.7,69.021H4.176Z" transform="translate(-0.5 -69.021)" fill="url(#linear-gradient-2)"/>
            </g>
          </g>
        </g>
      </g>
      <g id="g4047" transform="translate(7.094 0)">
        <g id="g4049" transform="translate(0 0)">
          <g id="g4055">
            <g id="g4057">
              <path id="path4065" d="M120.915.5l3.118,4.037,2.276-2.949a.693.693,0,0,0,.144-.417h0A.672.672,0,0,0,125.78.5h-4.865Z" transform="translate(-120.915 -0.5)" fill="url(#linear-gradient-3)"/>
            </g>
          </g>
        </g>
      </g>
      <g id="g4067" transform="translate(7.094 0)">
        <g id="g4069" transform="translate(0 0)">
          <g id="g4075">
            <g id="g4077">
              <path id="path4087" d="M126.165.5h-.384a.672.672,0,0,1,.672.671h0a.693.693,0,0,1-.144.417h0l-2.276,2.949-3.118,4.037h5.527a1.414,1.414,0,0,0,1.121-.55h0l2.452-3.188a.481.481,0,0,0,.1-.3h0a.477.477,0,0,0-.1-.29h0l-2.455-3.188-.016-.024A1.418,1.418,0,0,0,126.471.5h-.306Z" transform="translate(-120.915 -0.5)" fill="url(#linear-gradient-4)"/>
            </g>
          </g>
        </g>
      </g>
      <g id="g4091" transform="translate(3.494 0)">
        <g id="g4097" transform="translate(3.601 0)">
          <path id="path4099" d="M126.481,1.589A.672.672,0,0,0,125.955.5h-.174a.671.671,0,0,1,.672.671.694.694,0,0,1-.144.417l-2.276,2.949-3.118,4.037Z" transform="translate(-120.916 -0.501)" fill="#00c0f3"/>
        </g>
        <g id="g4101" transform="translate(0 4.037)">
          <path id="path4103" d="M59.941,76.013a.68.68,0,0,0-.144.416.672.672,0,0,0,.67.67h.175a.67.67,0,0,1-.672-.67.663.663,0,0,1,.145-.416L62.39,73.06l3.116-4.037Z" transform="translate(-59.797 -69.023)" fill="#ffd400"/>
        </g>
        <g id="g4105" transform="translate(50.881 5.584)">
          <path id="path4107" d="M926.745,98.052a5.265,5.265,0,0,0-.836-.248c-.468-.117-.9-.142-1.063-.394a.468.468,0,0,1,.133-.646,1.527,1.527,0,0,1,1.431-.03c.058.025.315.173.315.173a.23.23,0,0,0,.123.036.236.236,0,0,0,.194-.1c0-.007.655-.854.655-.854l-.11-.087a2.826,2.826,0,0,0-.249-.166,3.278,3.278,0,0,0-1.655-.453h-.076c-1.9.045-2.158,1.385-2.158,1.857a1.726,1.726,0,0,0,.926,1.554,9.181,9.181,0,0,0,1.715.526.7.7,0,0,1,.448.372.561.561,0,0,1,.046.211.648.648,0,0,1-.493.646,1.859,1.859,0,0,1-1.636-.386.754.754,0,0,0-.1-.073.241.241,0,0,0-.284.092l-.649.835s.225.186.3.243a3.172,3.172,0,0,0,1.894.651h.033A2.019,2.019,0,0,0,927.9,99.8a1.946,1.946,0,0,0-1.155-1.749" transform="translate(-923.418 -95.285)" fill="#00416b"/>
        </g>
        <g id="g4109" transform="translate(31.625 5.686)">
          <path id="path4111" d="M598.8,97.014a3.012,3.012,0,0,0-.837.121,1.919,1.919,0,0,0-.985.683,2.128,2.128,0,0,0-.4,1.171v4.438h1.187a.139.139,0,0,0,.138-.138V99.07a.769.769,0,0,1,.177-.525.908.908,0,0,1,.48-.2,1.734,1.734,0,0,1,.46,0,.248.248,0,0,0,.03,0,.24.24,0,0,0,.2-.117l.607-1.045a3.014,3.014,0,0,0-1.06-.169" transform="translate(-596.578 -97.014)" fill="#00416b"/>
        </g>
        <g id="g4113" transform="translate(28.117 5.686)">
          <path id="path4115" d="M539.256,97.014a2.978,2.978,0,0,0-.836.121,1.918,1.918,0,0,0-.987.683,2.1,2.1,0,0,0-.4,1.171v4.438h1.186a.139.139,0,0,0,.137-.138V99.07a.757.757,0,0,1,.177-.525.909.909,0,0,1,.481-.2,1.715,1.715,0,0,1,.457,0l.03,0a.241.241,0,0,0,.2-.117l.607-1.045a3.022,3.022,0,0,0-1.06-.169" transform="translate(-537.035 -97.014)" fill="#00416b"/>
        </g>
        <g id="g4117" transform="translate(14.15 4.044)">
          <path id="path4119" d="M305.709,75.559a.245.245,0,0,0-.2-.1.226.226,0,0,0-.124.034l-.006,0A2.669,2.669,0,0,1,304,75.88a2.7,2.7,0,1,1,1.383-5.021.223.223,0,0,0,.131.039.259.259,0,0,0,.195-.093l.674-.878a4.033,4.033,0,1,0,0,6.507Z" transform="translate(-299.966 -69.147)" fill="#00416b"/>
        </g>
        <g id="g4121" transform="translate(34.722 5.594)">
          <path id="path4123" d="M652.392,96.72a1.981,1.981,0,0,1,1.88,1.357h-3.756a1.981,1.981,0,0,1,1.876-1.357m0-1.275a3.256,3.256,0,1,0,0,6.512h.1a3.317,3.317,0,0,0,2.027-.583l.122-.079s-.667-.865-.674-.875a.237.237,0,0,0-.191-.092.232.232,0,0,0-.12.031,2.947,2.947,0,0,1-1.262.323,1.983,1.983,0,0,1-1.865-1.315h4.457l.515,0a.138.138,0,0,0,.14-.136l.007-.382c0-.048.005-.1.005-.145a3.26,3.26,0,0,0-3.26-3.255" transform="translate(-649.137 -95.445)" fill="#00416b"/>
        </g>
        <g id="g4125" transform="translate(41.994 5.805)">
          <path id="path4127" d="M772.707,105.331a.137.137,0,0,1-.138-.133V99.159a.139.139,0,0,1,.132-.136h1.053a.138.138,0,0,1,.139.138V105.2a.138.138,0,0,1-.139.136Z" transform="translate(-772.569 -99.023)" fill="#00416b"/>
        </g>
        <g id="g4129" transform="translate(20.783 5.522)">
          <path id="path4131" d="M415.844,95.551a1.965,1.965,0,1,0,1.967,1.964,1.968,1.968,0,0,0-1.967-1.964m0,5.262a3.3,3.3,0,1,1,3.3-3.3,3.3,3.3,0,0,1-3.3,3.3" transform="translate(-412.548 -94.222)" fill="#00416b"/>
        </g>
        <g id="g4133" transform="translate(43.978 5.582)">
          <path id="path4135" d="M809.5,96.558a1.944,1.944,0,1,0,1.944,1.944,1.946,1.946,0,0,0-1.944-1.944m0,5.2a3.261,3.261,0,1,1,3.262-3.261,3.265,3.265,0,0,1-3.262,3.261" transform="translate(-806.241 -95.24)" fill="#00416b"/>
        </g>
      </g>
    </g>
    <g id="Grupo_190" data-name="Grupo 190" transform="translate(699.807 690)">
      <path id="Caminho_85" data-name="Caminho 85" d="M813.061,1141.853h51.118c-.035.188-.071.375-.105.563q-.356,1.924-.711,3.848-.364,1.965-.73,3.93-.341,1.841-.679,3.683c-.012.066-.032.088-.1.088q-25.666,0-51.333,0v-.03a.357.357,0,0,0,.03-.117q.388-1.835.775-3.671l.82-3.888q.411-1.948.821-3.9A4.779,4.779,0,0,0,813.061,1141.853Zm20.715,10.72c.56,0,1.119,0,1.679,0a7.544,7.544,0,0,0,1.26-.08,5.86,5.86,0,0,0,1.22-.283,4.847,4.847,0,0,0,2.72-2.614,8.077,8.077,0,0,0,.642-2.515,5.026,5.026,0,0,0-.072-1.637,2.586,2.586,0,0,0-1.628-1.935,4.412,4.412,0,0,0-1.606-.278c-.795-.01-1.59-.005-2.384-.006-.756,0-1.513,0-2.269,0-.057,0-.079.015-.089.073-.03.166-.068.329-.1.494q-.432,2.049-.865,4.1-.486,2.3-.975,4.605c-.016.074.006.08.07.08Q832.577,1152.571,833.776,1152.573Zm-7.544,0q1.993,0,3.986,0c.069,0,.094-.017.108-.086.133-.649.269-1.3.4-1.945.02-.1.021-.1-.076-.1H825.7c-.092,0-.091,0-.072-.092.116-.551.234-1.1.347-1.652.015-.071.04-.092.113-.091q2.234,0,4.469,0c.061,0,.086-.012.1-.078q.182-.88.374-1.756c.015-.069,0-.08-.068-.079-.33,0-.659,0-.989,0q-1.748,0-3.5,0c-.06,0-.076-.008-.062-.075q.143-.657.274-1.317c.016-.078.041-.1.121-.1q2.415,0,4.829,0c.055,0,.086-.007.1-.07.127-.608.257-1.216.387-1.824.021-.1.02-.1-.08-.1q-3.894,0-7.788,0c-.081,0-.107.022-.123.1q-.345,1.638-.695,3.274-.627,2.945-1.255,5.889c-.019.089-.019.089.072.089Zm18.885.018h3.273c.245,0,.491,0,.736,0,.041,0,.064-.007.074-.054q.208-1.006.42-2.012c.009-.044,0-.062-.043-.057a.438.438,0,0,1-.054,0h-4.944c-.094,0-.1.012-.075-.089.119-.555.237-1.111.35-1.667.013-.063.034-.081.1-.081q2.238,0,4.477,0c.062,0,.092-.012.106-.08.12-.581.245-1.161.368-1.742.019-.091.019-.092-.074-.092H845.36c-.053,0-.084,0-.068-.071q.143-.669.279-1.339c.013-.062.035-.079.1-.079q1.694,0,3.388,0c.486,0,.971,0,1.456,0,.064,0,.09-.013.1-.082.127-.611.259-1.221.391-1.831.012-.057.014-.081-.06-.081q-3.921,0-7.842,0c-.057,0-.076.017-.088.073q-.475,2.243-.954,4.484-.5,2.354-1.007,4.708c-.016.076,0,.085.073.085Q843.124,1152.59,845.117,1152.591Zm-24.056-6.662h0c.456-.025.913-.052,1.37-.075.043,0,.059-.012.063-.06a3.492,3.492,0,0,0-.035-.846,1.9,1.9,0,0,0-1.082-1.473,4.286,4.286,0,0,0-1.586-.4,9.309,9.309,0,0,0-2.17.075,4.374,4.374,0,0,0-2.025.829,3.06,3.06,0,0,0-1.193,1.8,1.9,1.9,0,0,0,.9,2.147,5.553,5.553,0,0,0,1.476.617c.443.13.9.21,1.338.351a2.181,2.181,0,0,1,.626.279.7.7,0,0,1,.268.773,1.2,1.2,0,0,1-.742.783,2.013,2.013,0,0,1-1.3.077,1.03,1.03,0,0,1-.794-.813,1.916,1.916,0,0,1-.037-.616c.006-.068-.007-.091-.082-.086-.535.035-1.071.065-1.606.1l-1.132.07c-.035,0-.059,0-.065.05a3.12,3.12,0,0,0,.112,1.376,2.322,2.322,0,0,0,1.405,1.526,5,5,0,0,0,1.3.283,9.064,9.064,0,0,0,2.428-.064,4.681,4.681,0,0,0,1.826-.689,3.717,3.717,0,0,0,1.744-2.547,2.274,2.274,0,0,0-.147-1.318,1.984,1.984,0,0,0-.815-.877,5.68,5.68,0,0,0-1.381-.571c-.562-.169-1.138-.282-1.706-.428a2.407,2.407,0,0,1-.509-.184.449.449,0,0,1-.25-.547.777.777,0,0,1,.456-.524,1.789,1.789,0,0,1,1.3-.077.809.809,0,0,1,.578.6,1.481,1.481,0,0,1,.053.454c0,.069.015.085.083.081C820.174,1145.976,820.618,1145.953,821.062,1145.929Zm35.187.191c-.013-.032-.021-.05-.028-.069q-.525-1.369-1.049-2.739a.088.088,0,0,0-.1-.069q-1.572,0-3.143,0c-.021,0-.045-.009-.068.012.01.023.02.046.03.068q1.019,2.156,2.038,4.31a.1.1,0,0,1-.015.126q-2.129,2.376-4.254,4.755c-.013.014-.032.025-.033.057h.082c1.032,0,2.065,0,3.1,0a.254.254,0,0,0,.218-.1q1.191-1.415,2.388-2.825c.017-.021.029-.048.062-.057l.024.055q.606,1.432,1.211,2.863a.115.115,0,0,0,.128.083q1.583,0,3.166,0c.088,0,.088,0,.051-.078q-1.106-2.341-2.215-4.682a.1.1,0,0,1,.019-.125q1.929-2.206,3.854-4.413c.011-.012.03-.021.026-.046l-.036,0q-1.572,0-3.143,0a.107.107,0,0,0-.093.052l-1.7,2.167Z" transform="translate(-810.516 -1141.853)" fill="#004184"/>
      <path id="Caminho_86" data-name="Caminho 86" d="M898.921,1156.871q-1.2,0-2.4,0c-.064,0-.086-.006-.07-.08q.49-2.3.975-4.605.433-2.049.865-4.1c.035-.165.073-.328.1-.494.01-.058.032-.073.089-.073.756,0,1.513,0,2.269,0,.795,0,1.59,0,2.384.006a4.412,4.412,0,0,1,1.606.278,2.586,2.586,0,0,1,1.628,1.935,5.026,5.026,0,0,1,.072,1.637,8.077,8.077,0,0,1-.642,2.515,4.847,4.847,0,0,1-2.72,2.614,5.876,5.876,0,0,1-1.22.283,7.558,7.558,0,0,1-1.26.08C900.04,1156.868,899.481,1156.871,898.921,1156.871Zm1.591-2.125a7.462,7.462,0,0,0,.857-.036,1.767,1.767,0,0,0,.906-.316,2.2,2.2,0,0,0,.709-.924,7.37,7.37,0,0,0,.4-1.432,4.115,4.115,0,0,0,.077-1.27,1.066,1.066,0,0,0-.754-.962,2.612,2.612,0,0,0-.751-.132c-.3-.011-.593-.012-.889-.026-.079,0-.107.014-.123.094-.158.774-.321,1.546-.482,2.319q-.274,1.313-.548,2.626c-.011.051,0,.06.048.06C900.144,1154.745,900.328,1154.746,900.512,1154.746Z" transform="translate(-875.66 -1146.151)" fill="#fede04"/>
      <path id="Caminho_87" data-name="Caminho 87" d="M862.762,1156.868h-3.978c-.091,0-.091,0-.072-.089q.627-2.944,1.255-5.889.349-1.637.695-3.274c.016-.076.043-.1.123-.1q3.894,0,7.788,0c.1,0,.1,0,.08.1-.129.608-.26,1.215-.387,1.824-.013.063-.044.07-.1.07q-2.415,0-4.829,0c-.08,0-.105.022-.121.1q-.13.66-.274,1.317c-.014.067,0,.074.062.074h3.5c.33,0,.659,0,.989,0,.064,0,.083.01.068.079q-.191.877-.374,1.756c-.014.066-.039.078-.1.078q-2.234,0-4.469,0c-.074,0-.1.021-.113.091-.113.551-.23,1.1-.347,1.653-.019.092-.02.092.072.092h4.959c.1,0,.1,0,.076.1-.136.648-.272,1.3-.4,1.945-.014.069-.039.086-.108.086Q864.755,1156.867,862.762,1156.868Z" transform="translate(-847.046 -1146.148)" fill="#fede04"/>
      <path id="Caminho_88" data-name="Caminho 88" d="M940.822,1156.946q-1.993,0-3.986,0c-.069,0-.089-.009-.073-.085q.506-2.353,1.006-4.708.478-2.242.954-4.484c.012-.056.031-.073.088-.073q3.921,0,7.842,0c.075,0,.073.024.061.081-.132.61-.264,1.22-.391,1.83-.014.069-.041.082-.1.082-.485,0-.971,0-1.456,0q-1.694,0-3.388,0c-.064,0-.086.017-.1.079q-.135.671-.279,1.339c-.015.071.016.071.068.071h4.469c.093,0,.094,0,.074.092-.123.581-.248,1.161-.368,1.742-.014.068-.044.08-.106.08q-2.238,0-4.477,0c-.064,0-.085.017-.1.081-.114.556-.232,1.112-.35,1.668-.022.1-.019.089.075.089h4.944a.44.44,0,0,0,.054,0c.048-.005.052.013.043.057q-.213,1.006-.42,2.012c-.01.047-.032.054-.073.054h-4.009Z" transform="translate(-906.22 -1146.208)" fill="#fede04"/>
      <path id="Caminho_89" data-name="Caminho 89" d="M829.564,1149.675c-.444.024-.888.047-1.331.074-.068,0-.085-.012-.083-.081a1.478,1.478,0,0,0-.053-.454.809.809,0,0,0-.578-.6,1.788,1.788,0,0,0-1.3.077.778.778,0,0,0-.456.524.449.449,0,0,0,.25.547,2.4,2.4,0,0,0,.509.184c.568.146,1.144.259,1.706.428a5.665,5.665,0,0,1,1.381.571,1.985,1.985,0,0,1,.815.877,2.275,2.275,0,0,1,.147,1.318,3.718,3.718,0,0,1-1.744,2.547,4.676,4.676,0,0,1-1.826.688,9.069,9.069,0,0,1-2.428.064,5,5,0,0,1-1.3-.283,2.322,2.322,0,0,1-1.405-1.527,3.12,3.12,0,0,1-.112-1.376c.006-.05.03-.048.065-.05l1.132-.07c.535-.032,1.071-.062,1.606-.1.075,0,.088.018.082.086a1.916,1.916,0,0,0,.037.616,1.03,1.03,0,0,0,.794.813,2.013,2.013,0,0,0,1.3-.077,1.2,1.2,0,0,0,.742-.783.7.7,0,0,0-.268-.773,2.174,2.174,0,0,0-.626-.279c-.44-.141-.9-.221-1.338-.351a5.557,5.557,0,0,1-1.476-.617,1.9,1.9,0,0,1-.9-2.147,3.06,3.06,0,0,1,1.193-1.8,4.371,4.371,0,0,1,2.025-.829,9.3,9.3,0,0,1,2.17-.075,4.288,4.288,0,0,1,1.586.4,1.9,1.9,0,0,1,1.082,1.473,3.489,3.489,0,0,1,.035.846c0,.048-.02.057-.063.06-.457.024-.913.05-1.37.075Z" transform="translate(-819.018 -1145.599)" fill="#fede04"/>
      <path id="Caminho_90" data-name="Caminho 90" d="M978.839,1150.476l.518-.659,1.7-2.167a.107.107,0,0,1,.093-.052q1.571,0,3.143,0l.036,0c0,.025-.015.034-.026.046q-1.926,2.207-3.854,4.413a.1.1,0,0,0-.019.125q1.109,2.34,2.214,4.682c.037.078.037.078-.051.078q-1.583,0-3.166,0a.115.115,0,0,1-.128-.083q-.6-1.432-1.211-2.863l-.024-.055c-.033.009-.045.036-.062.057q-1.2,1.411-2.388,2.825a.254.254,0,0,1-.218.1c-1.032,0-2.065,0-3.1,0h-.081c0-.032.02-.042.033-.057q2.126-2.378,4.254-4.755a.1.1,0,0,0,.015-.127q-1.02-2.154-2.038-4.31c-.011-.023-.02-.045-.03-.068.023-.021.047-.012.068-.012q1.572,0,3.143,0a.088.088,0,0,1,.1.07q.522,1.37,1.049,2.739C978.818,1150.425,978.826,1150.444,978.839,1150.476Z" transform="translate(-933.106 -1146.208)" fill="#fede04"/>
      <path id="Caminho_91" data-name="Caminho 91" d="M911.361,1161.4c-.184,0-.368,0-.552,0-.048,0-.059-.009-.048-.06q.276-1.312.548-2.626c.161-.773.324-1.546.482-2.319.016-.08.044-.1.123-.094.3.014.593.014.889.026a2.619,2.619,0,0,1,.751.132,1.067,1.067,0,0,1,.754.963,4.113,4.113,0,0,1-.077,1.27,7.352,7.352,0,0,1-.4,1.432,2.2,2.2,0,0,1-.708.924,1.766,1.766,0,0,1-.906.316A7.465,7.465,0,0,1,911.361,1161.4Z" transform="translate(-886.509 -1152.81)" fill="#004184"/>
    </g>
    <g id="Grupo_191" data-name="Grupo 191" transform="translate(761.305 690)">
      <path id="Caminho_92" data-name="Caminho 92" d="M844.487,1154.667H895.52c.03,0,.081-.023.069.045-.016.009-.013.026-.016.041q-.27,1.458-.54,2.915-.411,2.213-.822,4.425-.425,2.3-.847,4.591c-.013.07-.035.092-.11.092q-25.612,0-51.224,0h-.083a.094.094,0,0,1,0-.02q.4-1.9.8-3.8l.82-3.887q.411-1.947.82-3.895A4.786,4.786,0,0,0,844.487,1154.667Zm18.439,9.973c.014.015.03.009.044.009.72,0,1.44,0,2.161,0,.049,0,.066-.024.086-.059q.455-.8.911-1.592a.116.116,0,0,1,.117-.07q1.472,0,2.943,0c.076,0,.091.027.1.092.056.522.115,1.044.171,1.566.005.048.022.063.071.062q1.034,0,2.069,0c.047,0,.061-.009.054-.059-.04-.277-.077-.555-.116-.833q-.18-1.291-.361-2.582-.164-1.181-.327-2.363-.174-1.257-.349-2.514c-.008-.055-.026-.074-.085-.074q-1.188,0-2.376,0a.1.1,0,0,0-.1.057q-2.488,4.146-4.977,8.291C862.944,1164.594,862.923,1164.612,862.925,1164.639Zm-3.824-8.411h0c-.6,0-1.2,0-1.8,0-.056,0-.082.009-.1.072-.182.8-.368,1.6-.553,2.4q-.681,2.943-1.363,5.886c-.015.065,0,.07.058.07.23,0,.46,0,.69,0,.45,0,.9,0,1.349,0,.061,0,.084-.018.094-.076.018-.1.044-.2.067-.3q.268-1.157.534-2.314c.01-.045.028-.056.071-.056.227,0,.455,0,.682,0a8.862,8.862,0,0,0,1.586-.123,4.9,4.9,0,0,0,1.684-.6,3.253,3.253,0,0,0,1.181-1.153,2.97,2.97,0,0,0,.354-1.882,1.874,1.874,0,0,0-.569-1.18,2.358,2.358,0,0,0-1.005-.544,6.137,6.137,0,0,0-1.629-.2C859.99,1156.223,859.545,1156.228,859.1,1156.228Zm21.081,5.854a.418.418,0,0,0-.356.091,4.824,4.824,0,0,1-.639.433,3.68,3.68,0,0,1-2.275.572,1.75,1.75,0,0,1-.874-.295,1.417,1.417,0,0,1-.573-1,4.379,4.379,0,0,1,.267-2.341,3.03,3.03,0,0,1,1.071-1.385,2.7,2.7,0,0,1,2.542-.293,3.017,3.017,0,0,1,1.168.818.349.349,0,0,0,.312.126c.051-.005.068-.021.079-.067q.232-.958.466-1.914c.012-.049,0-.072-.04-.1-.147-.078-.294-.152-.447-.216a5.961,5.961,0,0,0-1.71-.417,5.867,5.867,0,0,0-1.935.089,5.051,5.051,0,0,0-3.769,3.3,5.5,5.5,0,0,0-.333,1.657,4.766,4.766,0,0,0,.089,1.369,2.71,2.71,0,0,0,1.738,2.011,4.069,4.069,0,0,0,1.183.262,6.106,6.106,0,0,0,2.074-.154,12.244,12.244,0,0,0,1.433-.527c.041-.017.046-.049.055-.083l.242-.987Q880.066,1162.56,880.182,1162.082Z" transform="translate(-841.946 -1154.663)" fill="#004184"/>
      <path id="Caminho_93" data-name="Caminho 93" d="M928.7,1169.536c0-.027.019-.045.031-.066q2.489-4.145,4.977-8.291a.1.1,0,0,1,.1-.057q1.188,0,2.376,0c.059,0,.077.018.085.074q.173,1.257.349,2.514.164,1.181.327,2.363.18,1.291.361,2.582c.039.278.075.555.116.833.007.05-.007.059-.054.059q-1.034,0-2.069,0c-.049,0-.066-.014-.071-.062-.056-.522-.115-1.044-.171-1.566-.007-.065-.022-.093-.1-.092q-1.471.005-2.943,0a.116.116,0,0,0-.117.07q-.454.8-.911,1.592c-.02.035-.037.059-.086.058-.72,0-1.441,0-2.161,0C928.732,1169.545,928.715,1169.551,928.7,1169.536Zm5.845-6.219-.017,0-1.722,3,.039,0c.659,0,1.318,0,1.977,0,.06,0,.059-.027.054-.069q-.049-.429-.1-.859-.089-.79-.178-1.58Q934.575,1163.563,934.547,1163.317Z" transform="translate(-907.722 -1159.56)" fill="#fede04"/>
      <path id="Caminho_94" data-name="Caminho 94" d="M900.915,1161.125c.444,0,.889,0,1.333,0a6.137,6.137,0,0,1,1.629.2,2.357,2.357,0,0,1,1.005.544,1.874,1.874,0,0,1,.569,1.18,2.97,2.97,0,0,1-.354,1.882,3.253,3.253,0,0,1-1.181,1.154,4.9,4.9,0,0,1-1.684.6,8.85,8.85,0,0,1-1.586.123c-.227,0-.455,0-.682,0-.043,0-.061.011-.071.056q-.265,1.157-.534,2.314c-.023.1-.049.2-.067.3-.01.058-.033.077-.094.076-.45,0-.9,0-1.349,0-.23,0-.46,0-.69,0-.056,0-.073,0-.058-.07q.684-2.942,1.363-5.886c.185-.8.371-1.6.553-2.4.015-.063.041-.072.1-.072.6,0,1.2,0,1.8,0Zm-.061,4.094h.214a3.329,3.329,0,0,0,.974-.129,1.416,1.416,0,0,0,1.111-1.4.83.83,0,0,0-.582-.872,1.748,1.748,0,0,0-.453-.1c-.4-.039-.806-.011-1.209-.021-.044,0-.055.019-.064.056q-.276,1.2-.555,2.4c-.013.055,0,.065.05.064C900.512,1165.218,900.683,1165.219,900.854,1165.219Z" transform="translate(-883.76 -1159.561)" fill="#fede04"/>
      <path id="Caminho_95" data-name="Caminho 95" d="M977.937,1166.459q-.116.479-.233.957-.12.493-.242.986c-.008.034-.014.067-.055.083a12.263,12.263,0,0,1-1.433.527,6.109,6.109,0,0,1-2.074.154,4.073,4.073,0,0,1-1.183-.262,2.71,2.71,0,0,1-1.738-2.011,4.767,4.767,0,0,1-.089-1.369,5.5,5.5,0,0,1,.333-1.657,5.052,5.052,0,0,1,3.769-3.3,5.874,5.874,0,0,1,1.935-.089,5.96,5.96,0,0,1,1.71.417c.153.064.3.138.447.216.045.024.052.047.04.1q-.236.957-.466,1.914c-.011.046-.028.062-.079.067a.349.349,0,0,1-.312-.126,3.016,3.016,0,0,0-1.168-.818,2.7,2.7,0,0,0-2.542.293,3.029,3.029,0,0,0-1.071,1.385,4.379,4.379,0,0,0-.267,2.341,1.417,1.417,0,0,0,.573,1,1.75,1.75,0,0,0,.874.295,3.68,3.68,0,0,0,2.275-.572,4.821,4.821,0,0,0,.639-.433A.418.418,0,0,1,977.937,1166.459Z" transform="translate(-939.701 -1159.041)" fill="#fede04"/>
      <path id="Caminho_96" data-name="Caminho 96" d="M947.423,1170.193q.028.246.056.492.089.79.178,1.581.048.429.1.859c0,.042.007.069-.054.069-.659,0-1.318,0-1.977,0l-.039,0,1.722-3Z" transform="translate(-920.598 -1166.436)" fill="#004184"/>
      <path id="Caminho_97" data-name="Caminho 97" d="M910.853,1170.153c-.171,0-.342,0-.513,0-.052,0-.063-.009-.05-.064q.28-1.2.555-2.4c.009-.038.02-.057.064-.056.4.009.807-.018,1.209.021a1.739,1.739,0,0,1,.453.1.83.83,0,0,1,.582.872,1.416,1.416,0,0,1-1.111,1.4,3.324,3.324,0,0,1-.974.129Z" transform="translate(-893.759 -1164.494)" fill="#004184"/>
    </g>
    <path id="noun-truck-4573114" d="M112.694,117.59a.706.706,0,0,0-.709.7v13.2a.707.707,0,0,0,.709.7h1.944a2.486,2.486,0,0,0,4.77,0h9.732a2.487,2.487,0,0,0,4.632,0H135.3a.706.706,0,0,0,.705-.7v-5.231a.705.705,0,0,0-.052-.27l-1.872-4.516a.707.707,0,0,0-.657-.439h-5.2v-2.743a.706.706,0,0,0-.709-.7Zm.7,1.409h13.409v11.785h-7.4a2.485,2.485,0,0,0-4.767,0H113.4Zm14.822,3.452h4.736l1.285,3.1h-6.02Zm0,4.516h6.372v3.817h-.7a2.491,2.491,0,0,0-4.876,0h-.8Zm3.238,3.248a1.074,1.074,0,1,1-1.079,1.075A1.064,1.064,0,0,1,131.459,130.215Zm-14.436.2a1.077,1.077,0,1,1-1.073,1.079A1.068,1.068,0,0,1,117.023,130.414Z" transform="translate(718.082 570.41)"/>
  </g>
</svg>
