<svg xmlns="http://www.w3.org/2000/svg" width="54" height="54" viewBox="0 0 54 54">
  <path id="Icon_ionic-logo-whatsapp" data-name="Icon ionic-logo-whatsapp" d="M29.739,2.25A26.408,26.408,0,0,0,3.23,28.555a26.033,26.033,0,0,0,3.8,13.583L2.25,56.25l14.677-4.663A26.554,26.554,0,0,0,56.25,28.555,26.407,26.407,0,0,0,29.739,2.25ZM42.921,38.544c-.624,1.546-3.444,2.957-4.689,3.022s-1.279.964-8.057-1.981S19.322,29.479,19,29.018s-2.625-3.742-2.5-7.046a7.511,7.511,0,0,1,2.58-5.511,2.6,2.6,0,0,1,1.836-.773c.534-.009.879-.016,1.274,0s.987-.083,1.5,1.282,1.741,4.719,1.9,5.061a1.228,1.228,0,0,1,.012,1.178,4.6,4.6,0,0,1-.719,1.095c-.354.379-.744.849-1.06,1.139-.352.321-.72.672-.35,1.358a20.286,20.286,0,0,0,3.589,4.79,18.5,18.5,0,0,0,5.315,3.534c.665.362,1.061.322,1.474-.112s1.765-1.9,2.241-2.552.923-.527,1.536-.281,3.876,2,4.541,2.357,1.108.546,1.267.832A5.567,5.567,0,0,1,42.921,38.544Z" transform="translate(-2.25 -2.25)" fill="#25d366"/>
</svg>
