<svg xmlns="http://www.w3.org/2000/svg" width="80.835" height="29.067" viewBox="0 0 80.835 29.067">
  <g id="Page-1" transform="translate(-48.186 -47.32)">
    <g id="Artboard" transform="translate(48.186 47.32)">
      <g id="vtex-logo" transform="translate(0 0)">
        <path id="Shape" d="M195.248,34.683h-2.9V44.6a.342.342,0,0,1-.34.34h-2.232a.342.342,0,0,1-.34-.34v-9.92H186.52a.326.326,0,0,1-.34-.324V32.6a.326.326,0,0,1,.34-.324h8.723a.342.342,0,0,1,.358.324v1.757A.342.342,0,0,1,195.248,34.683Z" transform="translate(-136.821 -23.797)" fill="#f36"/>
        <path id="path9" d="M234.352,44.453a22.313,22.313,0,0,1-3.45.223c-2.2,0-4.143-.563-4.143-3.665V35.351c0-3.1,1.961-3.646,4.158-3.646a22.026,22.026,0,0,1,3.423.22c.239.035.34.119.34.34v1.592a.342.342,0,0,1-.34.34h-3.583c-.8,0-1.091.265-1.091,1.16v1.55h4.549a.342.342,0,0,1,.34.34v1.619a.342.342,0,0,1-.34.34h-4.549v1.807c0,.886.289,1.16,1.091,1.16h3.593a.342.342,0,0,1,.34.34V44.1C234.695,44.315,234.591,44.419,234.352,44.453Z" transform="translate(-166.632 -23.374)" fill="#f36"/>
        <path id="path11" d="M273.74,44.934h-2.71a.448.448,0,0,1-.443-.265l-2.351-3.715L266.113,44.6c-.119.2-.239.34-.427.34H263.17a.226.226,0,0,1-.265-.223.315.315,0,0,1,.034-.119l3.7-6.154L262.9,32.594a.242.242,0,0,1-.035-.1.247.247,0,0,1,.265-.223h2.744c.188,0,.324.17.427.324l2.181,3.45,2.123-3.45a.552.552,0,0,1,.427-.324h2.524a.247.247,0,0,1,.265.223.241.241,0,0,1-.035.1l-3.715,5.883,3.867,6.1a.383.383,0,0,1,.05.17A.24.24,0,0,1,273.74,44.934Z" transform="translate(-193.159 -23.789)" fill="#f36"/>
        <path id="path13" d="M146.826,32.41a.265.265,0,0,0-.265.21l-2.476,9.161c-.035.188-.085.265-.239.265s-.2-.069-.239-.265l-2.468-9.161a.265.265,0,0,0-.265-.21h-2.436a.265.265,0,0,0-.265.324s3.023,10.5,3.055,10.615a2.571,2.571,0,0,0,2.627,1.858,2.654,2.654,0,0,0,2.627-1.858c.048-.143,3-10.615,3-10.615a.265.265,0,0,0-.265-.321Z" transform="translate(-101.549 -23.894)" fill="#f36"/>
        <path id="path15" d="M31.656.32H6.254A2.638,2.638,0,0,0,3.942,4.184L6.485,9.024H1.878a1.661,1.661,0,0,0-1.5,2.441L8.555,26.911a1.693,1.693,0,0,0,2.993,0l2.219-4.185L16.553,28a2.614,2.614,0,0,0,4.62,0L33.911,4.046A2.532,2.532,0,0,0,31.656.32ZM20.305,10.439,14.733,20.889a1.1,1.1,0,0,1-1.951,0l-5.5-10.35a1.027,1.027,0,0,1,.908-1.51H19.446a.958.958,0,0,1,.86,1.409Z" transform="translate(-0.186 -0.32)" fill="#f36"/>
      </g>
    </g>
  </g>
</svg>
