<svg xmlns="http://www.w3.org/2000/svg" width="37.882" height="28" viewBox="0 0 37.882 28">
  <g id="_004-barcode" data-name="004-barcode" transform="translate(0 -64)">
    <g id="Grupo_44" data-name="Grupo 44" transform="translate(4.941 68.941)">
      <g id="Grupo_43" data-name="Grupo 43" transform="translate(0 0)">
        <path id="Caminho_19" data-name="Caminho 19" d="M64.824,128a.824.824,0,0,0-.824.824v16.471a.824.824,0,1,0,1.647,0V128.824A.824.824,0,0,0,64.824,128Z" transform="translate(-64 -128)" fill="#f48120"/>
      </g>
    </g>
    <g id="Grupo_46" data-name="Grupo 46" transform="translate(8.235 68.941)">
      <g id="Grupo_45" data-name="Grupo 45" transform="translate(0 0)">
        <path id="Caminho_20" data-name="Caminho 20" d="M107.49,128a.824.824,0,0,0-.824.824V142a.824.824,0,1,0,1.647,0V128.824A.824.824,0,0,0,107.49,128Z" transform="translate(-106.666 -128)" fill="#f48120"/>
      </g>
    </g>
    <g id="Grupo_48" data-name="Grupo 48" transform="translate(11.529 68.941)">
      <g id="Grupo_47" data-name="Grupo 47" transform="translate(0 0)">
        <path id="Caminho_21" data-name="Caminho 21" d="M150.157,128a.824.824,0,0,0-.824.824V142a.824.824,0,1,0,1.647,0V128.824A.824.824,0,0,0,150.157,128Z" transform="translate(-149.333 -128)" fill="#f48120"/>
      </g>
    </g>
    <g id="Grupo_50" data-name="Grupo 50" transform="translate(14.824 68.941)">
      <g id="Grupo_49" data-name="Grupo 49" transform="translate(0 0)">
        <path id="Caminho_22" data-name="Caminho 22" d="M192.824,128a.824.824,0,0,0-.824.824V142a.824.824,0,1,0,1.647,0V128.824A.824.824,0,0,0,192.824,128Z" transform="translate(-192 -128)" fill="#f48120"/>
      </g>
    </g>
    <g id="Grupo_52" data-name="Grupo 52" transform="translate(18.118 68.941)">
      <g id="Grupo_51" data-name="Grupo 51" transform="translate(0 0)">
        <path id="Caminho_23" data-name="Caminho 23" d="M235.49,128a.824.824,0,0,0-.824.824v16.471a.824.824,0,1,0,1.647,0V128.824A.824.824,0,0,0,235.49,128Z" transform="translate(-234.666 -128)" fill="#f48120"/>
      </g>
    </g>
    <g id="Grupo_54" data-name="Grupo 54" transform="translate(21.412 68.941)">
      <g id="Grupo_53" data-name="Grupo 53" transform="translate(0 0)">
        <path id="Caminho_24" data-name="Caminho 24" d="M278.157,128a.824.824,0,0,0-.824.824V142a.824.824,0,1,0,1.647,0V128.824A.824.824,0,0,0,278.157,128Z" transform="translate(-277.333 -128)" fill="#f48120"/>
      </g>
    </g>
    <g id="Grupo_56" data-name="Grupo 56" transform="translate(24.706 68.941)">
      <g id="Grupo_55" data-name="Grupo 55" transform="translate(0 0)">
        <path id="Caminho_25" data-name="Caminho 25" d="M320.824,128a.824.824,0,0,0-.824.824V142a.824.824,0,1,0,1.647,0V128.824A.824.824,0,0,0,320.824,128Z" transform="translate(-320 -128)" fill="#f48120"/>
      </g>
    </g>
    <g id="Grupo_58" data-name="Grupo 58" transform="translate(28 68.941)">
      <g id="Grupo_57" data-name="Grupo 57" transform="translate(0 0)">
        <path id="Caminho_26" data-name="Caminho 26" d="M363.49,128a.824.824,0,0,0-.824.824V142a.824.824,0,1,0,1.647,0V128.824A.824.824,0,0,0,363.49,128Z" transform="translate(-362.666 -128)" fill="#f48120"/>
      </g>
    </g>
    <g id="Grupo_60" data-name="Grupo 60" transform="translate(31.294 68.941)">
      <g id="Grupo_59" data-name="Grupo 59" transform="translate(0 0)">
        <path id="Caminho_27" data-name="Caminho 27" d="M406.157,128a.824.824,0,0,0-.824.824v16.471a.824.824,0,1,0,1.647,0V128.824A.824.824,0,0,0,406.157,128Z" transform="translate(-405.333 -128)" fill="#f48120"/>
      </g>
    </g>
    <g id="Grupo_62" data-name="Grupo 62" transform="translate(8.235 85.422)">
      <g id="Grupo_61" data-name="Grupo 61" transform="translate(0 0)">
        <path id="Caminho_28" data-name="Caminho 28" d="M108.066,341.686a.863.863,0,0,0-1.169.016.823.823,0,0,0-.231.577.824.824,0,0,0,1.647,0A.836.836,0,0,0,108.066,341.686Z" transform="translate(-106.666 -341.466)" fill="#f48120"/>
      </g>
    </g>
    <g id="Grupo_64" data-name="Grupo 64" transform="translate(11.529 85.424)">
      <g id="Grupo_63" data-name="Grupo 63" transform="translate(0 0)">
        <path id="Caminho_29" data-name="Caminho 29" d="M150.734,341.728a.825.825,0,0,0-1.153,0,.773.773,0,0,0-.247.577.836.836,0,0,0,.247.593.853.853,0,0,0,.577.231.836.836,0,0,0,.593-.247.823.823,0,0,0,.231-.576A.8.8,0,0,0,150.734,341.728Z" transform="translate(-149.334 -341.493)" fill="#f48120"/>
      </g>
    </g>
    <g id="Grupo_66" data-name="Grupo 66" transform="translate(14.824 85.424)">
      <g id="Grupo_65" data-name="Grupo 65" transform="translate(0 0)">
        <path id="Caminho_30" data-name="Caminho 30" d="M193.4,341.728a.825.825,0,0,0-1.153,0,.824.824,0,0,0,.576,1.4.836.836,0,0,0,.593-.247.823.823,0,0,0,.231-.576A.773.773,0,0,0,193.4,341.728Z" transform="translate(-192 -341.493)" fill="#f48120"/>
      </g>
    </g>
    <g id="Grupo_68" data-name="Grupo 68" transform="translate(21.412 85.424)">
      <g id="Grupo_67" data-name="Grupo 67" transform="translate(0 0)">
        <path id="Caminho_31" data-name="Caminho 31" d="M278.734,341.728a.825.825,0,0,0-1.153,0,.824.824,0,1,0,1.153,0Z" transform="translate(-277.334 -341.493)" fill="#f48120"/>
      </g>
    </g>
    <g id="Grupo_70" data-name="Grupo 70" transform="translate(24.706 85.424)">
      <g id="Grupo_69" data-name="Grupo 69" transform="translate(0 0)">
        <path id="Caminho_32" data-name="Caminho 32" d="M321.4,341.728a.825.825,0,0,0-1.153,0,.824.824,0,1,0,1.153,0Z" transform="translate(-320 -341.493)" fill="#f48120"/>
      </g>
    </g>
    <g id="Grupo_72" data-name="Grupo 72" transform="translate(28 85.428)">
      <g id="Grupo_71" data-name="Grupo 71" transform="translate(0 0)">
        <path id="Caminho_33" data-name="Caminho 33" d="M364.067,341.777a.859.859,0,0,0-1.153-.016.847.847,0,0,0-.247.593.824.824,0,0,0,1.647,0A.781.781,0,0,0,364.067,341.777Z" transform="translate(-362.667 -341.546)" fill="#f48120"/>
      </g>
    </g>
    <g id="Grupo_74" data-name="Grupo 74" transform="translate(0 64)">
      <g id="Grupo_73" data-name="Grupo 73" transform="translate(0 0)">
        <path id="Caminho_34" data-name="Caminho 34" d="M32.118,64H5.765A5.771,5.771,0,0,0,0,69.765V86.235A5.771,5.771,0,0,0,5.765,92H32.118a5.771,5.771,0,0,0,5.765-5.765V69.765A5.771,5.771,0,0,0,32.118,64Zm4.118,22.235a4.123,4.123,0,0,1-4.118,4.118H5.765a4.123,4.123,0,0,1-4.118-4.118V69.765a4.123,4.123,0,0,1,4.118-4.118H32.118a4.123,4.123,0,0,1,4.118,4.118Z" transform="translate(0 -64)" fill="#f48120"/>
      </g>
    </g>
  </g>
</svg>
