<svg xmlns="http://www.w3.org/2000/svg" width="34.296" height="28" viewBox="0 0 34.296 28">
  <g id="_002-credit-card" data-name="002-credit-card" transform="translate(1 -46.014)">
    <g id="Grupo_76" data-name="Grupo 76" transform="translate(-1 46.014)">
      <g id="Grupo_75" data-name="Grupo 75" transform="translate(0 0)">
        <path id="Caminho_35" data-name="Caminho 35" d="M264.105,248.567h9.143a.54.54,0,0,0,.571-.571v-5.143a.54.54,0,0,0-.571-.571h-9.143a.54.54,0,0,0-.571.571V248A.54.54,0,0,0,264.105,248.567Zm.571-5.143h8v4h-8Z" transform="translate(-245.82 -229.138)" fill="#f48120"/>
        <path id="Caminho_36" data-name="Caminho 36" d="M33.705,209.29h4.571a.571.571,0,1,0,0-1.143H33.705a.571.571,0,1,0,0,1.143Z" transform="translate(-30.848 -197.29)" fill="#f48120"/>
        <path id="Caminho_37" data-name="Caminho 37" d="M136.105,209.29h4.571a.571.571,0,1,0,0-1.143h-4.571a.571.571,0,1,0,0,1.143Z" transform="translate(-126.391 -197.29)" fill="#f48120"/>
        <path id="Caminho_38" data-name="Caminho 38" d="M33.705,243.424h7.429a.571.571,0,0,0,0-1.143H33.705a.571.571,0,0,0,0,1.143Z" transform="translate(-30.848 -229.138)" fill="#f48120"/>
        <path id="Caminho_39" data-name="Caminho 39" d="M180.486,242.28h-1.714a.571.571,0,0,0,0,1.143h1.714a.571.571,0,0,0,0-1.143Z" transform="translate(-166.2 -229.137)" fill="#f48120"/>
        <path id="Caminho_40" data-name="Caminho 40" d="M32.771,52.071a2.129,2.129,0,0,0-1.543-.857l-1.371-.166V48.3a2.292,2.292,0,0,0-2.286-2.286H1.286A2.292,2.292,0,0,0-1,48.3V66.585A2.294,2.294,0,0,0,.637,68.776a2.224,2.224,0,0,0,2.02,2.266l26.4,2.971h.229a2.288,2.288,0,0,0,2.286-1.943l1.714-18.343A2.221,2.221,0,0,0,32.771,52.071ZM.143,50.014H28.714v3.429H.143Zm1.143-2.857H27.571A1.146,1.146,0,0,1,28.714,48.3v.571H.143V48.3A1.146,1.146,0,0,1,1.286,47.157ZM.143,66.585v-12H28.714v12a1.146,1.146,0,0,1-1.143,1.143H1.286A1.146,1.146,0,0,1,.143,66.585Zm32-13.086L30.429,71.843a1.153,1.153,0,0,1-1.257,1.029L2.829,69.9A1.155,1.155,0,0,1,1.8,68.871H27.571a2.292,2.292,0,0,0,2.286-2.286V52.128l1.314.114a.977.977,0,0,1,.743.4A1.157,1.157,0,0,1,32.143,53.5Z" transform="translate(1 -46.014)" fill="#f48120"/>
      </g>
    </g>
  </g>
</svg>
