<svg xmlns="http://www.w3.org/2000/svg" width="25.362" height="32.569" viewBox="0 0 25.362 32.569">
  <g id="_005-security" data-name="005-security" transform="translate(-0.055 0)">
    <path id="Caminho_11" data-name="Caminho 11" d="M25.094,6.594,12.853.072a.608.608,0,0,0-.579,0L.371,6.6a.609.609,0,0,0-.316.535v8.52A17.642,17.642,0,0,0,10.629,31.8l1.652.72a.609.609,0,0,0,.485,0l1.862-.8A17.607,17.607,0,0,0,25.417,15.483V7.132a.61.61,0,0,0-.323-.538Zm-.9,8.889A16.391,16.391,0,0,1,14.15,30.594l0,0-1.621.7-1.409-.615A16.421,16.421,0,0,1,1.273,15.652V7.493L12.57,1.3,24.2,7.5Zm0,0" transform="translate(0 0)" fill="#f48120"/>
    <path id="Caminho_12" data-name="Caminho 12" d="M80.915,148.583a.609.609,0,0,0-.927.791l3.219,3.77a.609.609,0,0,0,.848.077l7.5-6.1a.609.609,0,0,0-.769-.945L83.747,151.9Zm0,0" transform="translate(-72.841 -133.325)" fill="#f48120"/>
  </g>
</svg>
