<svg xmlns="http://www.w3.org/2000/svg" width="26.998" height="30.373" viewBox="0 0 26.998 30.373">
  <g id="noun-thumbs-up-1041981" transform="translate(-126.005 -28)">
    <path id="Caminho_130" data-name="Caminho 130" d="M144.229,28a2.357,2.357,0,0,0-1.824,1.055,12.144,12.144,0,0,0-1.107,1.793,16.952,16.952,0,0,1-2.468,3.8,16.653,16.653,0,0,0-5.41,5.073C131,41.3,130,41.5,127.018,41.5a1.013,1.013,0,0,0-1.012,1.012V53.986A1.013,1.013,0,0,0,127.018,55a22.859,22.859,0,0,1,7.055,1.635,24.123,24.123,0,0,0,7.793,1.74h2.7a5.969,5.969,0,0,0,3.491-.949,3.718,3.718,0,0,0,1.466-2.289,2.985,2.985,0,0,0,1.413-1.149,4.955,4.955,0,0,0,.717-2.7,5.4,5.4,0,0,0-.158-1.276s0-.008,0-.011A3.515,3.515,0,0,0,153,47.236a3.427,3.427,0,0,0-.559-1.93,3.367,3.367,0,0,0-.359-.369A3.825,3.825,0,0,0,153,42.522v-.011a3.738,3.738,0,0,0-4.05-4.05,1.012,1.012,0,1,0,0,2.025,2.074,2.074,0,0,1,1.519.475,2.01,2.01,0,0,1,.506,1.529V42.5a2.763,2.763,0,0,1-.833,1.487,1.012,1.012,0,0,0-.19,1.624,6.584,6.584,0,0,1,.822.833,1.152,1.152,0,0,1,.2.791,2.018,2.018,0,0,1-1.16,1.466,1.013,1.013,0,0,0-.453,1.276,4.041,4.041,0,0,1,.264,1.308,3.1,3.1,0,0,1-.39,1.6c-.217.337-.38.422-.622.422a1.013,1.013,0,0,0-1.012,1.012,1.536,1.536,0,0,1-.706,1.445,4.154,4.154,0,0,1-2.331.58h-2.7a22.84,22.84,0,0,1-7.139-1.635,27.733,27.733,0,0,0-6.7-1.666V43.482a11.409,11.409,0,0,0,6.633-2.151,1.011,1.011,0,0,0,.285-.285A14.541,14.541,0,0,1,140.01,36.3a1.007,1.007,0,0,0,.211-.169,17.494,17.494,0,0,0,2.869-4.324,11.916,11.916,0,0,1,.9-1.508,1.1,1.1,0,0,1,.274-.274c.207,0,.236.019.369.242A3.08,3.08,0,0,1,144.9,31.7v.011c0,2.662-1.514,4.83-2.9,7.256a1.012,1.012,0,0,0,.875,1.519h2.7a1.012,1.012,0,1,0,0-2.025H144.6c1.144-1.934,2.331-4.03,2.331-6.75a4.766,4.766,0,0,0-.559-2.478A2.555,2.555,0,0,0,144.229,28Z" transform="translate(0)" fill="#f48120"/>
  </g>
</svg>
