<svg id="Grupo_140" data-name="Grupo 140" xmlns="http://www.w3.org/2000/svg" xmlns:xlink="http://www.w3.org/1999/xlink" width="51.441" height="57.091" viewBox="0 0 51.441 57.091">
  <defs>
    <clipPath id="clip-path">
      <rect id="Retângulo_109" data-name="Retângulo 109" width="51.441" height="57.091" fill="none"/>
    </clipPath>
  </defs>
  <g id="Grupo_139" data-name="Grupo 139" clip-path="url(#clip-path)">
    <path id="Caminho_113" data-name="Caminho 113" d="M3.294,23.674,28.231,0h8.926C27.993,10.328,3.923,28.15,2.792,37.942c-3.976-4.391-3.614-9.164.5-14.268" transform="translate(0)" fill="#002d71" fill-rule="evenodd"/>
    <path id="Caminho_114" data-name="Caminho 114" d="M139.079,150.189,116.624,126.6l-6.038,5.915,17.227,17.674Z" transform="translate(-87.908 -100.639)" fill="#f48120" fill-rule="evenodd"/>
    <path id="Caminho_115" data-name="Caminho 115" d="M97.227,179.655l-14.9-15.987-4.97,4.915L88.4,179.655Z" transform="translate(-61.495 -130.105)" fill="#f48120" fill-rule="evenodd"/>
    <path id="Caminho_116" data-name="Caminho 116" d="M45.847,49.55l-8.52-9.21c-1.62-1.494-.84-1.82.29-3.218C46.784,25.786,67.2,8.717,74.611,0h-9.57c-6.1,5.758-33.821,29.738-35.259,35.61a7.223,7.223,0,0,0,1.47,8.061l5.355,5.879Z" transform="translate(-23.17)" fill="#002d71" fill-rule="evenodd"/>
    <path id="Caminho_117" data-name="Caminho 117" d="M98.4,256.544a.5.5,0,0,1-.059.212.2.2,0,0,1-.194.122H96.7l-.795.8.515-1.409h1.815q.108,0,.135.05a.249.249,0,0,1,.027.122Zm-5.012,3.305H95.12l.6-1.643.1-.072,1.86,1.716h1.932l-1.77-1.815a7.144,7.144,0,0,0,.772-.1,2.688,2.688,0,0,0,.75-.253,1.659,1.659,0,0,0,.564-.474,1.221,1.221,0,0,0,.226-.759,3.521,3.521,0,0,0-.032-.452,1.41,1.41,0,0,0-.135-.451.9.9,0,0,0-.3-.343.914.914,0,0,0-.524-.135H95.129Zm-3.9-4.786-1.743,4.786h4.542a.739.739,0,0,0,.113-.09q.1-.09.239-.221t.275-.275a2.748,2.748,0,0,0,.221-.253.613.613,0,0,0,.045-.063c.024-.036.048-.075.072-.118s.048-.083.072-.122.039-.065.045-.077H89.91l.2-.542h1.8l1.291-1.219H91.111l-.858.831.515-1.418h2.781q.072,0,.23-.145a3.649,3.649,0,0,0,.325-.343q.167-.2.316-.4a2.455,2.455,0,0,0,.212-.33Zm-6.872,2,.713-2h1.707q-.316.921-.488,1.431t-.253.763q-.081.253-.1.32a.436.436,0,0,0-.018.095,1.259,1.259,0,0,0-.045.289.666.666,0,0,0,.176.492.535.535,0,0,0,.384.176h.442a.9.9,0,0,0,.4-.09,1.332,1.332,0,0,0,.33-.226,1.883,1.883,0,0,0,.253-.289,2.2,2.2,0,0,0,.171-.28l.975-2.682H88.98l-.813,2.23a10.7,10.7,0,0,1-.461,1.1,3.41,3.41,0,0,1-.533.8,1.991,1.991,0,0,1-.686.492,2.345,2.345,0,0,1-.93.167H84.5a6.152,6.152,0,0,1-1.066-.077,1.874,1.874,0,0,1-.677-.239.916.916,0,0,1-.361-.42,1.591,1.591,0,0,1-.108-.618q0-.1.009-.2t.027-.226a3.245,3.245,0,0,1,.126-.465q.081-.23.163-.537m-4.326,1.481,1.517-2.032.316,2.122H78.288Zm3.63,1.3-.6-3.874c-.018-.072-.041-.161-.068-.266a2.975,2.975,0,0,0-.095-.3.933.933,0,0,0-.131-.244.215.215,0,0,0-.167-.1H79.345a.3.3,0,0,0-.158.068,2.081,2.081,0,0,0-.19.154,2.454,2.454,0,0,0-.176.176.737.737,0,0,0-.108.145l-3.251,4.154v.027a.249.249,0,0,0-.018.063h3.82a.782.782,0,0,0,.2-.172q.136-.145.276-.316t.253-.325a1.026,1.026,0,0,0,.131-.208l.19,1.02Zm-7.7-3.305a.5.5,0,0,1-.059.212.2.2,0,0,1-.194.122H72.518l-.795.8.515-1.409h1.815q.108,0,.135.05a.249.249,0,0,1,.027.122ZM69.2,259.849h1.734l.6-1.643.1-.072,1.86,1.716h1.932l-1.77-1.815a7.144,7.144,0,0,0,.772-.1,2.689,2.689,0,0,0,.749-.253,1.658,1.658,0,0,0,.564-.474,1.221,1.221,0,0,0,.226-.759,3.52,3.52,0,0,0-.032-.452,1.41,1.41,0,0,0-.135-.451.9.9,0,0,0-.3-.343.914.914,0,0,0-.524-.135H70.947Zm-6.3,0h1.734l.786-2.149,1.77,2.149h1.932l-1.734-2.393,3.124-2.393H68.581l-2.989,2.149.786-2.149H64.644Z" transform="translate(-50.002 -202.758)" fill="#002d71"/>
  </g>
</svg>
