<svg xmlns="http://www.w3.org/2000/svg" width="29" height="28" viewBox="0 0 29 28">
  <g id="_001-shopping-cart" data-name="001-shopping-cart" transform="translate(0 -6.028)">
    <g id="Grupo_25" data-name="Grupo 25" transform="translate(0 6.028)">
      <g id="Grupo_24" data-name="Grupo 24">
        <path id="Caminho_6" data-name="Caminho 6" d="M99.657,350.322a3,3,0,1,0,3,3A3,3,0,0,0,99.657,350.322Zm0,4.672a1.669,1.669,0,1,1,1.669-1.669A1.669,1.669,0,0,1,99.657,354.994Z" transform="translate(-90.417 -328.329)" fill="#f48120"/>
        <path id="Caminho_7" data-name="Caminho 7" d="M298.188,350.322a3,3,0,1,0,3,3A3,3,0,0,0,298.188,350.322Zm0,4.672a1.669,1.669,0,1,1,1.669-1.669A1.669,1.669,0,0,1,298.188,354.994Z" transform="translate(-276.098 -328.329)" fill="#f48120"/>
        <path id="Caminho_8" data-name="Caminho 8" d="M28.863,10.5a.844.844,0,0,0-.538-.267l-21.9-.3L5.82,8.1A3.093,3.093,0,0,0,2.927,6.028H.673a.667.667,0,1,0,0,1.335H2.927A1.748,1.748,0,0,1,4.541,8.531L8.814,21.313l-.336.768a3.182,3.182,0,0,0,.3,2.9,3.134,3.134,0,0,0,2.523,1.4H24.389a.667.667,0,1,0,0-1.335H11.3a1.718,1.718,0,0,1-1.413-.8,1.823,1.823,0,0,1-.168-1.6l.269-.6,14.162-1.468a3.691,3.691,0,0,0,3.2-2.8l1.615-6.708A.564.564,0,0,0,28.863,10.5Zm-2.826,6.975a2.282,2.282,0,0,1-2.052,1.769L9.991,20.679,6.863,11.268l20.621.3Z" transform="translate(0 -6.028)" fill="#f48120"/>
      </g>
    </g>
  </g>
</svg>
