<svg xmlns="http://www.w3.org/2000/svg" width="15.608" height="15.328" viewBox="0 0 15.608 15.328">
  <path id="Caminho_129" data-name="Caminho 129" d="M574.415,622.912h-3.277V612.237h3.277Zm-1.635-12.041c-1.193,0-1.784-.549-1.784-1.642a1.509,1.509,0,0,1,.511-1.162,1.782,1.782,0,0,1,1.273-.482c1.183,0,1.776.552,1.776,1.645s-.593,1.642-1.776,1.642ZM586.6,622.912h-3.359v-5.954c0-1.555-.549-2.328-1.642-2.328a1.672,1.672,0,0,0-1.714,1.3,1.8,1.8,0,0,0-.131.821v6.156H576.4v-7.257c0-1.635-.018-2.777-.059-3.418h2.867l.21,1.432a3.737,3.737,0,0,1,3.349-1.7,3.555,3.555,0,0,1,2.777,1.193,5.055,5.055,0,0,1,1.062,3.459Zm0,0" transform="translate(-570.997 -607.584)" fill="#002d71"/>
</svg>
