<?xml version="1.0" encoding="utf-8"?>
<!-- Generator: Adobe Illustrator 25.4.6, SVG Export Plug-In . SVG Version: 6.00 Build 0)  -->
<svg version="1.1" id="Camada_1" xmlns="http://www.w3.org/2000/svg" xmlns:xlink="http://www.w3.org/1999/xlink" x="0px" y="0px"
	 viewBox="0 0 72 72" style="enable-background:new 0 0 72 72;" xml:space="preserve">
<style type="text/css">
	.st0{fill-rule:evenodd;clip-rule:evenodd;fill:#002D71;}
	.st1{fill-rule:evenodd;clip-rule:evenodd;fill:#F48120;}
	.st2{fill:#002D71;}
</style>
<g>
	<path class="st0" d="M13.7,31.2L38.5,7.6h8.9c-9.1,10.3-33.1,28-34.2,37.7C9.2,41,9.6,36.2,13.7,31.2"/>
	<polygon class="st1" points="61.3,56.9 39,33.4 33,39.3 50.1,56.9 	"/>
	<polygon class="st1" points="46,56.9 31.1,41 26.2,45.9 37.2,56.9 	"/>
	<path class="st0" d="M33,56.9l-8.5-9.2c-1.6-1.5-0.8-1.8,0.3-3.2c9.1-11.3,29.4-28.3,36.8-36.9h-9.5C46,13.3,18.4,37.2,17,43
		c-1,2.5-1,5.2,1.5,8l5.3,5.8H33z"/>
	<path class="st2" d="M58.6,61.1c0,0.1,0,0.1-0.1,0.2c0,0.1-0.1,0.1-0.2,0.1h-1.4l-0.8,0.8l0.5-1.4h1.8c0.1,0,0.1,0,0.1,0
		C58.5,60.9,58.6,61,58.6,61.1L58.6,61.1z M53.6,64.4h1.7l0.6-1.6l0.1-0.1l1.9,1.7h1.9L58,62.6c0.2,0,0.5-0.1,0.8-0.1
		c0.3-0.1,0.5-0.1,0.7-0.3c0.2-0.1,0.4-0.3,0.6-0.5c0.1-0.2,0.2-0.4,0.2-0.8c0-0.1,0-0.3,0-0.4c0-0.2-0.1-0.3-0.1-0.4
		c-0.1-0.1-0.2-0.3-0.3-0.3c-0.1-0.1-0.3-0.1-0.5-0.1h-4L53.6,64.4z M49.7,59.6L48,64.4h4.5c0,0,0,0,0.1-0.1
		c0.1-0.1,0.1-0.1,0.2-0.2c0.1-0.1,0.2-0.2,0.3-0.3c0.1-0.1,0.2-0.2,0.2-0.3c0,0,0,0,0-0.1c0,0,0-0.1,0.1-0.1c0,0,0-0.1,0.1-0.1
		c0,0,0-0.1,0-0.1h-3.4l0.2-0.5h1.8l1.3-1.2h-2.1l-0.9,0.8l0.5-1.4h2.8c0,0,0.1,0,0.2-0.1c0.1-0.1,0.2-0.2,0.3-0.3
		c0.1-0.1,0.2-0.3,0.3-0.4c0.1-0.1,0.2-0.2,0.2-0.3H49.7z M42.9,61.6l0.7-2h1.7c-0.2,0.6-0.4,1.1-0.5,1.4c-0.1,0.3-0.2,0.6-0.3,0.8
		c-0.1,0.2-0.1,0.3-0.1,0.3c0,0,0,0.1,0,0.1c0,0.1,0,0.2,0,0.3c0,0.2,0.1,0.4,0.2,0.5c0.1,0.1,0.2,0.2,0.4,0.2h0.4
		c0.1,0,0.3,0,0.4-0.1c0.1-0.1,0.2-0.1,0.3-0.2c0.1-0.1,0.2-0.2,0.3-0.3c0.1-0.1,0.1-0.2,0.2-0.3l1-2.7h1.7l-0.8,2.2
		c-0.1,0.4-0.3,0.8-0.5,1.1c-0.2,0.3-0.3,0.6-0.5,0.8c-0.2,0.2-0.4,0.4-0.7,0.5c-0.3,0.1-0.6,0.2-0.9,0.2h-1.1c-0.4,0-0.8,0-1.1-0.1
		c-0.3-0.1-0.5-0.1-0.7-0.2c-0.2-0.1-0.3-0.2-0.4-0.4c-0.1-0.2-0.1-0.4-0.1-0.6c0-0.1,0-0.1,0-0.2c0-0.1,0-0.1,0-0.2
		c0-0.2,0.1-0.3,0.1-0.5C42.7,62,42.8,61.8,42.9,61.6z M38.6,63.1l1.5-2l0.3,2.1L38.6,63.1L38.6,63.1z M42.2,64.4l-0.6-3.9
		c0-0.1,0-0.2-0.1-0.3c0-0.1-0.1-0.2-0.1-0.3c0-0.1-0.1-0.2-0.1-0.2c-0.1-0.1-0.1-0.1-0.2-0.1h-1.5c0,0-0.1,0-0.2,0.1
		c-0.1,0-0.1,0.1-0.2,0.2c-0.1,0.1-0.1,0.1-0.2,0.2C39,60.1,39,60.1,39,60.2l-3.2,4.1v0c0,0,0,0,0,0.1h3.8c0,0,0.1-0.1,0.2-0.2
		c0.1-0.1,0.2-0.2,0.3-0.3c0.1-0.1,0.2-0.2,0.3-0.3c0.1-0.1,0.1-0.2,0.1-0.2l0.2,1H42.2z M34.5,61.1c0,0.1,0,0.1-0.1,0.2
		c0,0.1-0.1,0.1-0.2,0.1h-1.4L32,62.2l0.5-1.4h1.8c0.1,0,0.1,0,0.1,0C34.5,60.9,34.5,61,34.5,61.1L34.5,61.1z M29.5,64.4h1.7
		l0.6-1.6l0.1-0.1l1.9,1.7h1.9l-1.8-1.8c0.2,0,0.5-0.1,0.8-0.1c0.3-0.1,0.5-0.1,0.7-0.3c0.2-0.1,0.4-0.3,0.6-0.5
		c0.1-0.2,0.2-0.4,0.2-0.8c0-0.1,0-0.3,0-0.4c0-0.2-0.1-0.3-0.1-0.4c-0.1-0.1-0.2-0.3-0.3-0.3c-0.1-0.1-0.3-0.1-0.5-0.1h-4
		L29.5,64.4z M23.2,64.4H25l0.8-2.1l1.8,2.1h1.9L27.7,62l3.1-2.4h-1.9l-3,2.1l0.8-2.1H25L23.2,64.4z"/>
</g>
</svg>
